<?xml version="1.0" encoding="iso-8859-1"?>
<!-- Generator: Adobe Illustrator 18.0.0, SVG Export Plug-In . SVG Version: 6.00 Build 0)  -->
<!DOCTYPE svg PUBLIC "-//W3C//DTD SVG 1.1//EN" "http://www.w3.org/Graphics/SVG/1.1/DTD/svg11.dtd">
<svg xmlns="http://www.w3.org/2000/svg" xmlns:xlink="http://www.w3.org/1999/xlink" version="1.1" id="Capa_1" x="0px" y="0px" viewBox="0 0 297 297" style="enable-background:new 0 0 297 297;" xml:space="preserve" width="512px" height="512px">
<path d="M230.372,236.638c8.738-29.715,31.733-119.761,31.733-119.761h25.581c3.767,0,7.164-2.269,8.605-5.749  c1.441-3.481,0.644-7.487-2.019-10.151l-49.124-49.124c-2.239-2.239-5.463-3.189-8.558-2.517c-3.094,0.67-5.638,2.868-6.749,5.833  l-25.935,69.159l-89.79-88.884c-2.672-2.646-6.672-3.424-10.139-1.977c-3.468,1.447-5.728,4.838-5.728,8.596v58.611L64.946,68.15  c-2.681-2.618-6.67-3.375-10.123-1.92c-3.454,1.454-5.699,4.836-5.699,8.584v105.311H9.314c-3.767,0-7.164,2.269-8.605,5.749  c-1.441,3.481-0.644,7.487,2.019,10.151l65.499,65.498c0.004,0.004,0.007,0.005,0.01,0.008c1.708,1.702,4.052,2.72,6.576,2.72  h125.706c2.47,0,4.839-0.981,6.586-2.728l20.923-20.923C229.081,239.548,229.96,238.039,230.372,236.638z M116.877,64.39  l79.861,79.054l-14.663,39.101l-65.198-63.677V64.39z M49.124,198.752v7.06c0,1.001,0.161,1.996,0.478,2.945l3.898,11.693  l-21.699-21.699H49.124z M196.661,245.622H81.527L67.753,204.3V96.93l140.439,137.162L196.661,245.622z M216.527,216.193  l-19.993-19.527l30.061-79.789h16.24L216.527,216.193z M233.58,98.249l8.624-22.996l22.996,22.996H233.58z" fill="#FFFFFF"/>
<g>
</g>
<g>
</g>
<g>
</g>
<g>
</g>
<g>
</g>
<g>
</g>
<g>
</g>
<g>
</g>
<g>
</g>
<g>
</g>
<g>
</g>
<g>
</g>
<g>
</g>
<g>
</g>
<g>
</g>
</svg>
